<?xml version="1.0" standalone="no"?><!DOCTYPE svg PUBLIC "-//W3C//DTD SVG 1.1//EN" "http://www.w3.org/Graphics/SVG/1.1/DTD/svg11.dtd"><svg t="1531257431933" class="icon" style="" viewBox="0 0 1024 1024" version="1.1" xmlns="http://www.w3.org/2000/svg" p-id="2373" xmlns:xlink="http://www.w3.org/1999/xlink" width="200" height="200"><defs><style type="text/css"></style></defs><path d="M622.70464 182.69184c-121.18016 21.1968-222.74048 110.19264-259.90144 227.71712-10.99776 34.80576-15.18592 62.03392-15.18592 101.55008 0 93.44 34.28352 174.58176 100.77184 238.96064 145.78688 141.07648 380.30336 121.96864 500.70528-40.57088 42.65984-57.32352 64.38912-124.0576 64.64512-197.08928 0.26624-42.40384-3.14368-65.4336-14.65344-102.08256-32.9728-103.63904-115.16928-185.82528-218.80832-218.27584-46.32576-14.39744-109.6704-18.5856-157.57312-10.20928z m116.736 125.11232c69.888 20.41856 123.01312 73.28768 145.53088 145.26464 5.23264 17.00864 6.02112 25.12896 6.02112 58.89024s-0.78848 41.8816-6.02112 58.89024c-18.31936 58.368-58.63424 106.00448-111.75936 131.92192-71.97696 35.072-161.75104 25.38496-223.78496-24.34048-117.00224-93.70624-105.216-271.42144 23.02976-349.16352 48.41472-29.58336 110.71488-37.69344 166.98368-21.46304z" p-id="2374"></path><path d="M634.49088 326.37952c-52.09088 12.56448-101.29408 52.86912-124.59008 101.81632-14.65344 30.62784-19.10784 49.99168-19.10784 83.75296 0.26624 89.25184 57.84576 162.79552 144.9984 184.79104 30.3616 7.58784 73.02144 6.02112 103.38304-3.66592 114.64704-37.6832 166.21568-169.60512 107.3152-275.8656-14.65344-26.17344-48.9472-59.41248-76.43136-73.54368-30.3616-15.70816-54.96832-21.46304-90.8288-21.1968-15.95392-0.01024-36.10624 1.82272-44.73856 3.91168z m10.72128 115.69152c7.33184 5.75488 11.52 14.1312 11.52 22.50752 0 6.27712 0.52224 6.27712 8.11008 3.66592 4.4544-1.56672 14.91968-2.08896 23.296-1.31072l15.18592 1.31072 1.57696-8.63232c3.92192-21.1968 30.3616-29.31712 46.592-14.65344 7.33184 6.54336 8.63232 9.4208 8.63232 19.89632s-1.31072 13.35296-8.63232 19.89632c-4.7104 4.18816-10.73152 7.58784-13.60896 7.58784-6.28736 0-6.28736-0.26624-1.31072 11.25376 2.08896 5.23264 3.92192 15.44192 3.92192 22.77376 0 53.92384-63.86688 80.35328-101.81632 42.40384-18.06336-18.06336-23.02976-39.7824-14.65344-63.34464 4.97664-13.8752 4.97664-13.08672-1.04448-13.08672-13.34272 0-25.12896-19.63008-20.9408-35.33824 4.9664-17.55136 29.56288-26.18368 43.17184-14.92992zM10.24 258.06848c0 44.4928 1.04448 82.45248 2.87744 90.04032 6.02112 28.0064 26.17344 47.37024 49.46944 47.37024h10.46528v419.04128l6.54336 6.27712c8.37632 8.63232 20.41856 8.63232 28.79488 0l6.54336-6.27712V395.47904h10.46528c23.296 0 43.44832-19.36384 49.46944-47.37024 1.83296-7.58784 2.87744-45.54752 2.87744-90.04032v-77.2096h-41.61536l-0.78848 82.18624c-0.78848 76.43136-1.04448 82.45248-5.75488 87.68512-2.87744 3.14368-7.0656 5.49888-9.94304 5.49888-4.44416 0-4.7104-4.18816-4.7104-87.68512v-87.68512H73.0624v86.10816c0 55.22432-1.04448 86.89664-2.62144 87.94112-4.7104 2.87744-12.29824-1.04448-15.17568-8.11008-2.0992-4.44416-3.14368-31.67232-3.14368-86.10816v-79.83104H10.24v77.2096zM252.34432 185.82528c-52.34688 24.34048-73.28768 132.17792-39.7824 203.1104 9.95328 20.6848 22.25152 36.12672 33.50528 42.14784l7.58784 3.92192v189.2352c0 187.66848 0 189.50144 5.49888 196.3008 7.33184 9.1648 20.15232 9.4208 28.52864 0.256l6.27712-6.79936 0.26624-188.19072V437.62688l14.65344-13.08672c27.74016-24.60672 41.61536-62.81216 41.61536-114.11456 0.01024-86.90688-48.15872-147.88608-98.1504-124.60032z" p-id="2375"></path></svg>