<?xml version="1.0" standalone="no"?><!DOCTYPE svg PUBLIC "-//W3C//DTD SVG 1.1//EN" "http://www.w3.org/Graphics/SVG/1.1/DTD/svg11.dtd"><svg t="1531257323574" class="icon" style="" viewBox="0 0 1024 1024" version="1.1" xmlns="http://www.w3.org/2000/svg" p-id="1637" xmlns:xlink="http://www.w3.org/1999/xlink" width="200" height="200"><defs><style type="text/css"></style></defs><path d="M896.853333 443.733333v127.658667c0 197.461333-178.517333 256-398.848 256C277.674667 826.026667 98.986667 768 98.986667 570.709333V443.733333z" fill="#8DC63F" p-id="1638"></path><path d="M498.005333 843.093333C221.866667 843.093333 81.92 750.933333 81.92 570.709333V426.666667h832v144.725333c0 179.541333-139.946667 271.701333-415.914667 271.701333zM116.053333 460.8v110.592c0 160.256 124.928 238.933333 381.781334 238.933333s381.781333-77.994667 381.781333-238.933333V460.8z" fill="#006838" p-id="1639"></path><path d="M641.536 460.8a17.066667 17.066667 0 0 1-10.069333-31.573333l351.061333-256a17.066667 17.066667 0 1 1 20.138667 27.648l-351.061334 256a17.066667 17.066667 0 0 1-10.069333 3.925333zM529.066667 460.8a17.066667 17.066667 0 0 1-12.8-28.330667l223.402666-256a17.066667 17.066667 0 0 1 25.770667 22.528l-223.402667 256A17.066667 17.066667 0 0 1 529.066667 460.8z" fill="#EF4136" p-id="1640"></path><path d="M317.44 317.952h-57.514667a65.706667 65.706667 0 1 1 0-131.242667h96.768a17.066667 17.066667 0 0 1 0 34.133334h-96.768a31.573333 31.573333 0 1 0 0 62.976h57.514667a17.066667 17.066667 0 0 1 0 34.133333z" fill="#808285" p-id="1641"></path><path d="M332.970667 395.605333H290.133333a17.066667 17.066667 0 1 1 0-34.133333h42.325334a21.845333 21.845333 0 0 0 0-43.52h-71.509334a17.066667 17.066667 0 1 1 0-34.133333h72.021334a55.978667 55.978667 0 0 1 0 111.786666z" fill="#808285" p-id="1642"></path><path d="M256 443.733333a17.066667 17.066667 0 0 1-17.066667-17.066666c0-53.76 38.570667-65.536 53.418667-65.536a17.066667 17.066667 0 0 1 0 34.133333c-4.608 0-19.626667 3.242667-19.626667 31.402667a17.066667 17.066667 0 0 1-16.725333 17.066666z" fill="#808285" p-id="1643"></path><path d="M944.810667 460.8H51.2a17.066667 17.066667 0 0 1 0-34.133333h893.610667a17.066667 17.066667 0 0 1 0 34.133333zM785.066667 858.965333H178.858667a17.066667 17.066667 0 1 1 0-34.133333H785.066667a17.066667 17.066667 0 0 1 0 34.133333z" fill="#006838" p-id="1644"></path><path d="M722.432 734.890667a17.066667 17.066667 0 0 1-9.386667-31.232c53.589333-35.498667 88.064-92.501333 88.064-145.408a17.066667 17.066667 0 1 1 34.133334 0c0 77.653333-53.418667 140.629333-103.424 173.738666a17.066667 17.066667 0 0 1-9.386667 2.901334z" fill="#FFFFFF" p-id="1645"></path></svg>