<?xml version="1.0" standalone="no"?><!DOCTYPE svg PUBLIC "-//W3C//DTD SVG 1.1//EN" "http://www.w3.org/Graphics/SVG/1.1/DTD/svg11.dtd"><svg t="1531257385516" class="icon" style="" viewBox="0 0 1024 1024" version="1.1" xmlns="http://www.w3.org/2000/svg" p-id="1758" xmlns:xlink="http://www.w3.org/1999/xlink" width="200" height="200"><defs><style type="text/css"></style></defs><path d="M172.885333 505.685333c82.432 82.432 264.533333 148.821333 373.589334 102.4l204.8 204.8c-12.288 36.864-14.848 83.456 12.288 110.592A69.290667 69.290667 0 0 0 881.493333 870.4a69.290667 69.290667 0 0 0 53.930667-119.466667c-27.136-27.136-73.728-24.576-110.592-12.288l-204.8-204.8c45.568-107.178667-20.309333-290.133333-102.741333-372.565333a243.541333 243.541333 0 0 0-344.405334 344.405333z" fill="#FFFFFF" p-id="1759"></path><path d="M812.373333 961.194667a85.333333 85.333333 0 0 1-61.44-25.429334c-25.941333-25.941333-33.109333-69.461333-19.626666-117.930666L542.208 628.565333c-114.346667 39.253333-295.765333-25.258667-381.44-110.933333A260.608 260.608 0 1 1 529.066667 149.333333c85.333333 85.333333 150.016 267.093333 110.933333 381.44l189.44 189.269334c48.469333-13.482667 91.989333-6.314667 117.930667 19.456a86.357333 86.357333 0 0 1-49.493334 146.773333 85.333333 85.333333 0 0 1-85.333333 74.922667zM550.570667 588.629333l219.818666 219.818667-3.413333 10.069333c-10.24 30.890667-13.482667 71.509333 8.192 93.184a53.76 53.76 0 0 0 74.24 0 51.2 51.2 0 0 0 15.018667-41.301333l-1.194667-19.456 19.456 1.365333a51.2 51.2 0 0 0 40.618667-15.018666 52.394667 52.394667 0 0 0 0-74.24c-21.674667-21.674667-62.293333-18.432-93.184-8.192l-10.069334 3.413333-219.818666-219.306667 4.437333-10.581333c41.813333-99.669333-20.138667-275.797333-99.328-354.986667a226.474667 226.474667 0 0 0-320.341333 320.170667c79.189333 79.189333 256 141.141333 354.986666 99.328z" fill="#808285" p-id="1760"></path><path d="M620.544 538.794667c46.592-111.104-20.992-296.789333-105.130667-380.757334A248.149333 248.149333 0 0 0 164.522667 508.928C248.661333 592.896 434.346667 660.650667 546.133333 614.4z" fill="#FBB040" p-id="1761"></path><path d="M461.824 645.973333c-109.226667 0-239.957333-55.637333-309.248-124.928a265.216 265.216 0 1 1 375.466667-375.466666c89.941333 89.941333 157.013333 283.989333 108.714666 399.530666l-1.365333 3.072-80.042667 79.872-3.072 1.365334a233.984 233.984 0 0 1-90.453333 16.554666zM340.138667 102.4a231.082667 231.082667 0 0 0-163.498667 394.581333c80.042667 80.042667 256 142.848 358.4 102.4L606.037333 529.066667c40.106667-102.4-22.528-279.04-102.4-358.4a229.546667 229.546667 0 0 0-163.498666-68.266667z m280.405333 436.394667z" fill="#BE1E2D" p-id="1762"></path><path d="M424.96 219.477333a17.066667 17.066667 0 0 1-13.482667-6.485333 77.824 77.824 0 0 0-61.44-25.258667 96.426667 96.426667 0 0 0-69.802666 25.088 17.066667 17.066667 0 0 1-26.794667-21.162666A127.829333 127.829333 0 0 1 350.037333 153.6a108.885333 108.885333 0 0 1 88.234667 38.058667 17.066667 17.066667 0 0 1-13.312 27.648zM445.781333 544.938667a145.408 145.408 0 0 1-96.768-36.010667 17.066667 17.066667 0 0 1 22.869334-25.429333 111.445333 111.445333 0 0 0 81.408 26.965333 17.066667 17.066667 0 1 1 4.266666 34.133333 100.352 100.352 0 0 1-11.776 0.341334z" fill="#F15A29" p-id="1763"></path><path d="M224.597333 471.552a32.938667 32.938667 0 1 1 32.938667-32.938667 32.938667 32.938667 0 0 1-32.938667 32.938667z m0-34.133333a1.194667 1.194667 0 0 0-1.194666 1.194666c0 1.365333 2.56 1.365333 2.56 0a1.194667 1.194667 0 0 0-1.365334-1.194666zM224.597333 313.514667a32.938667 32.938667 0 1 1 32.938667-32.938667 32.938667 32.938667 0 0 1-32.938667 32.938667z m0-34.133334a1.194667 1.194667 0 0 0-1.194666 1.194667c0 1.365333 2.56 1.365333 2.56 0a1.194667 1.194667 0 0 0-1.365334-1.194667zM335.36 392.533333a32.938667 32.938667 0 1 1 32.938667-32.938666A32.938667 32.938667 0 0 1 335.36 392.533333z m0-34.133333a1.194667 1.194667 0 0 0-1.194667 1.194667c0 1.365333 2.56 1.365333 2.56 0a1.194667 1.194667 0 0 0-1.365333-1.194667z" fill="#FFFFFF" p-id="1764"></path></svg>