<?xml version="1.0" standalone="no"?><!DOCTYPE svg PUBLIC "-//W3C//DTD SVG 1.1//EN" "http://www.w3.org/Graphics/SVG/1.1/DTD/svg11.dtd"><svg t="1531257394778" class="icon" style="" viewBox="0 0 1024 1024" version="1.1" xmlns="http://www.w3.org/2000/svg" p-id="1877" xmlns:xlink="http://www.w3.org/1999/xlink" width="200" height="200"><defs><style type="text/css"></style></defs><path d="M267.264 401.066667c131.413333-159.402667 334.165333-88.064 334.165333-88.064 250.368 0 354.304 136.533333 354.304 297.813333C955.733333 842.581333 814.08 836.266667 502.272 836.266667h-409.6A40.448 40.448 0 0 1 51.2 790.357333c4.096-30.378667 53.930667-40.448 53.930667-40.448 57.514667-15.701333 42.496-39.765333 70.826666-158.890666a486.912 486.912 0 0 1 59.392-146.090667" fill="#FBB040" p-id="1878"></path><path d="M549.888 853.333333H92.501333a59.733333 59.733333 0 0 1-44.714666-20.309333 57.856 57.856 0 0 1-13.653334-44.885333C40.106667 746.666667 95.914667 733.866667 102.4 733.866667c30.037333-8.192 31.914667-13.653333 41.984-69.632 3.584-19.968 8.021333-44.885333 15.530667-76.458667a506.709333 506.709333 0 0 1 61.952-151.893333 17.066667 17.066667 0 1 1 29.013333 18.090666 472.746667 472.746667 0 0 0-57.344 140.970667c-7.338667 30.72-11.605333 55.125333-15.189333 74.581333-10.24 56.490667-14.848 82.261333-68.266667 96.768-12.970667 2.730667-39.765333 12.629333-41.642667 26.112a23.893333 23.893333 0 0 0 5.290667 18.432 25.088 25.088 0 0 0 19.285333 8.362667h433.664c145.408 0 251.221333 0 318.634667-26.794667S938.666667 713.386667 938.666667 610.986667c0-175.786667-126.122667-280.746667-337.237334-280.746667h-2.901333l-2.730667-1.024c-7.850667-2.730667-193.365333-65.194667-315.392 82.773333a17.066667 17.066667 0 1 1-26.282666-21.674666c128.512-155.818667 324.266667-102.4 350.037333-94.208C835.072 296.96 972.8 414.549333 972.8 610.986667c0 115.712-35.328 181.418667-114.688 213.162666C788.48 851.968 687.616 853.333333 549.888 853.333333z" fill="#BE1E2D" p-id="1879"></path><path d="M796.330667 744.789333h-169.130667a39.253333 39.253333 0 0 1-39.765333-39.082666 39.253333 39.253333 0 0 1 39.765333-39.082667c-39.765333-77.994667 29.866667-107.349333 29.866667-107.349333l139.264 146.261333s39.936 39.253333 0 39.253333z" fill="#FBB040" p-id="1880"></path><path d="M796.330667 761.856h-169.130667a55.978667 55.978667 0 0 1-23.552-107.178667 90.112 90.112 0 0 1 0-61.098666 93.525333 93.525333 0 0 1 47.786667-50.005334l10.922666-4.608 147.456 154.794667c10.752 10.581333 28.16 31.573333 20.48 51.2-4.266667 7.509333-12.629333 16.896-33.962666 16.896z m-169.301334-77.994667a22.016 22.016 0 1 0 0 43.861334h165.546667a80.384 80.384 0 0 0-8.362667-9.728l-130.389333-136.533334a54.101333 54.101333 0 0 0-19.285333 24.746667 67.242667 67.242667 0 0 0 7.68 53.248l12.629333 24.746667z" fill="#BE1E2D" p-id="1881"></path><path d="M546.133333 548.522667a162.474667 162.474667 0 0 0-37.205333-55.978667c-43.690667-40.96-140.458667-73.728-198.314667-51.2l-108.544-101.376a51.2 51.2 0 0 0-6.485333-54.954667 38.912 38.912 0 0 0-52.224 0 33.109333 33.109333 0 0 0-10.581333 26.794667 38.058667 38.058667 0 0 0-28.501334 9.898667 32.938667 32.938667 0 0 0 0 48.810666 61.781333 61.781333 0 0 0 58.709334 6.144L271.189333 477.866667c-24.234667 54.101333 10.922667 144.384 54.613334 185.344a138.410667 138.410667 0 0 0 53.930666 31.402666" fill="#FBB040" p-id="1882"></path><path d="M379.904 711.68a17.066667 17.066667 0 0 1-4.949333 0 154.794667 154.794667 0 0 1-60.586667-35.157333c-46.933333-43.861333-81.237333-132.266667-62.976-193.024l-93.354667-88.064a72.021333 72.021333 0 0 1-65.706666-12.629334 50.005333 50.005333 0 0 1 0-73.728 54.101333 54.101333 0 0 1 24.917333-13.141333A51.2 51.2 0 0 1 131.413333 273.066667a56.32 56.32 0 0 1 75.605334 0 62.634667 62.634667 0 0 1 14.848 61.610666l93.354666 87.210667c64-17.066667 158.890667 14.165333 205.824 58.026667a180.053333 180.053333 0 0 1 41.472 62.122666 17.066667 17.066667 0 1 1-31.744 12.629334 146.773333 146.773333 0 0 0-33.109333-49.834667c-40.448-37.717333-129.877333-68.266667-180.565333-47.616L307.2 460.8l-124.416-116.394667 3.754667-10.581333c4.266667-11.946667 6.314667-28.842667-2.048-36.693333a21.845333 21.845333 0 0 0-29.013334 0 16.042667 16.042667 0 0 0-5.12 13.141333l1.365334 19.456-20.309334-0.853333a20.821333 20.821333 0 0 0-15.872 5.290666 15.872 15.872 0 0 0 0 23.893334 46.08 46.08 0 0 0 41.984 2.218666l9.386667-2.901333 124.586667 116.565333-4.949334 11.093334c-20.650667 46.250667 10.752 128.512 51.2 165.888a120.832 120.832 0 0 0 47.274667 27.477333 17.066667 17.066667 0 0 1-4.949333 34.133333z" fill="#BE1E2D" p-id="1883"></path><path d="M330.24 351.402667a17.066667 17.066667 0 0 1-11.605333-4.608l-74.24-69.290667 3.754666-10.581333c4.266667-11.946667 6.314667-28.842667-2.048-36.693334a21.845333 21.845333 0 0 0-29.013333 0 16.042667 16.042667 0 0 0-5.12 13.141334 17.066667 17.066667 0 0 1-15.872 18.261333 17.066667 17.066667 0 0 1-18.261333-15.872 51.2 51.2 0 0 1 15.872-40.96 56.32 56.32 0 0 1 75.605333 0 62.634667 62.634667 0 0 1 14.165333 62.122667L341.333333 321.877333a17.066667 17.066667 0 0 1-11.605333 29.525334z" fill="#BE1E2D" p-id="1884"></path><path d="M349.013333 606.549333a17.066667 17.066667 0 0 1-9.216-2.730666 70.997333 70.997333 0 0 1-27.648-53.76 60.586667 60.586667 0 0 1 20.138667-51.2 17.066667 17.066667 0 1 1 22.016 26.112 28.330667 28.330667 0 0 0-8.192 23.552 39.424 39.424 0 0 0 11.946667 27.306666 17.066667 17.066667 0 0 1-9.216 31.402667zM856.746667 529.066667a17.066667 17.066667 0 0 1-17.066667-12.288c-9.898667-34.133333-58.368-65.194667-76.288-74.410667a17.066667 17.066667 0 1 1 15.530667-30.378667c3.072 1.706667 77.312 40.277333 93.354666 95.232a17.066667 17.066667 0 0 1-17.066666 21.845334z" fill="#F15A29" p-id="1885"></path></svg>