<?xml version="1.0" standalone="no"?><!DOCTYPE svg PUBLIC "-//W3C//DTD SVG 1.1//EN" "http://www.w3.org/Graphics/SVG/1.1/DTD/svg11.dtd"><svg t="1531257513577" class="icon" style="" viewBox="0 0 1024 1024" version="1.1" xmlns="http://www.w3.org/2000/svg" p-id="3435" xmlns:xlink="http://www.w3.org/1999/xlink" width="200" height="200"><defs><style type="text/css"></style></defs><path d="M510.083347 369.969193c-79.893608 0-144.661727 64.772212-144.661727 144.662751 0 79.893608 64.764026 144.649448 144.661727 144.649448 79.889515 0 144.661727-64.75584 144.661727-144.649448C654.745075 434.737312 589.972862 369.969193 510.083347 369.969193L510.083347 369.969193zM510.083347 641.612986c-70.136384 0-126.982066-56.848753-126.982066-126.97695 0-70.137407 56.849776-126.998439 126.982066-126.998439s126.977973 56.861032 126.977973 126.998439C637.06132 584.768327 580.215638 641.612986 510.083347 641.612986L510.083347 641.612986zM510.083347 641.612986" p-id="3436"></path><path d="M512.014326 145.32176c-202.50718 0-366.691543 164.169013-366.691543 366.67517 0 202.511273 164.184363 366.680287 366.691543 366.680287 202.51025 0 366.662891-164.169013 366.662891-366.680287C878.677217 309.490773 714.524576 145.32176 512.014326 145.32176L512.014326 145.32176zM298.283524 681.202657l-44.750203 0.451278L264.47758 468.231147c-63.149249-14.690584-47.307446-102.175077-42.346457-141.763724l11.600199 0 4.240581 82.640162 11.256368 0 4.208858-82.640162 11.632945 0 4.208858 82.640162 11.072173 0 4.208858-82.640162 11.632945 0 4.208858 82.640162 10.600429 0 4.241604-82.640162 11.600199 0c3.40147 41.083697 20.801768 127.35762-42.535769 141.795447L298.283524 681.202657 298.283524 681.202657zM510.083347 704.558597c-104.904235 0-189.943027-85.037768-189.943027-189.926654 0-104.901165 85.038792-189.939957 189.943027-189.939957 104.901165 0 189.938933 85.038792 189.938933 189.939957C700.022281 619.516736 614.984513 704.558597 510.083347 704.558597L510.083347 704.558597zM757.215888 472.316186l12.503778 213.423811-44.874023-0.435928 12.507872-212.95616c-27.473725-6.235005-48.367591-38.122249-48.367591-76.527954 0-42.907229 26.070772-77.679174 58.221006-77.679174 32.117488 0 58.18826 34.771945 58.18826 77.679174C805.391097 434.114119 784.593422 465.972711 757.215888 472.316186L757.215888 472.316186zM757.215888 472.316186" p-id="3437"></path></svg>