<?xml version="1.0" standalone="no"?><!DOCTYPE svg PUBLIC "-//W3C//DTD SVG 1.1//EN" "http://www.w3.org/Graphics/SVG/1.1/DTD/svg11.dtd"><svg t="1531258484193" class="icon" style="" viewBox="0 0 1024 1024" version="1.1" xmlns="http://www.w3.org/2000/svg" p-id="4637" xmlns:xlink="http://www.w3.org/1999/xlink" width="200" height="200"><defs><style type="text/css"></style></defs><path d="M224.016 0c-106.043319 0-191.99616 100.288554-191.99616 224.00576 0 105.920442 63.0157 194.658507 147.698806 217.98476l-31.784324 518.113158c-2.150357 35.122498 24.882702 63.875842 60.087118 63.875842l32.0096 0c35.204416 0 62.237475-28.753345 60.087118-63.875842l-31.784324-518.113158c84.683106-23.326253 147.698806-112.064319 147.698806-217.98476 0-123.717206-85.952841-224.00576-191.99616-224.00576zM869.327893 0l-53.328853 319.9936-39.99664 0-26.664427-319.9936-26.664427 0-26.664427 319.9936-39.99664 0-53.328853-319.9936-26.664427 0 0 416.00192c0 17.673887 14.335713 32.0096 32.0096 32.0096l83.331453 0-31.415692 512.112638c-2.150357 35.122498 24.882702 63.875842 60.087118 63.875842l32.0096 0c35.204416 0 62.237475-28.753345 60.087118-63.875842l-31.415692-512.112638 83.331453 0c17.673887 0 32.0096-14.335713 32.0096-32.0096l0-416.00192-26.664427 0z" p-id="4638"></path></svg>